<svg width="77" height="63" viewBox="0 0 77 63" fill="none" xmlns="http://www.w3.org/2000/svg">
<path d="M73.5021 38.8921C73.3825 38.4134 73.3825 37.8151 73.7415 37.4561C75.7758 33.7464 76.9725 29.558 76.9725 25.1303C76.9725 11.2488 65.1254 0 50.6455 0C44.4228 0 38.6787 2.15402 34.1313 5.6244C49.0898 8.85543 60.219 21.7796 60.219 37.0971C60.219 41.4051 59.3813 45.5935 57.7059 49.3032C60.0993 48.7049 62.373 47.7475 64.527 46.4312C65.0057 46.1918 65.4844 46.0722 65.963 46.3115L73.6218 49.0639C74.9381 49.5426 76.2545 48.2262 75.8955 46.7902L73.5021 38.8921Z" fill="#F82BA9" fill-opacity="0.2"/>
<path d="M26.7117 11.9668C12.2319 11.9668 0.384766 23.2156 0.384766 37.0971C0.384766 41.5248 1.58144 45.7132 3.73547 49.4229C3.9748 49.9016 4.09447 50.3802 3.97481 50.8589L1.46178 58.8767C0.983105 60.3127 2.29945 61.629 3.73547 61.1503L11.3942 58.398C11.8729 58.2783 12.4712 58.2783 12.8302 58.5177C16.8989 60.911 21.566 62.2274 26.7117 62.2274C41.1916 62.2274 53.0387 50.9786 53.0387 37.0971C53.0387 23.2156 41.1916 11.9668 26.7117 11.9668ZM12.3516 41.8838C9.71887 41.8838 7.56485 39.7298 7.56485 37.0971C7.56485 34.4644 9.71887 32.3104 12.3516 32.3104C14.9843 32.3104 17.1383 34.4644 17.1383 37.0971C17.1383 39.7298 14.9843 41.8838 12.3516 41.8838ZM26.7117 41.8838C24.079 41.8838 21.925 39.7298 21.925 37.0971C21.925 34.4644 24.079 32.3104 26.7117 32.3104C29.3444 32.3104 31.4984 34.4644 31.4984 37.0971C31.4984 39.7298 29.3444 41.8838 26.7117 41.8838ZM41.0719 41.8838C38.4392 41.8838 36.2852 39.7298 36.2852 37.0971C36.2852 34.4644 38.4392 32.3104 41.0719 32.3104C43.7046 32.3104 45.8586 34.4644 45.8586 37.0971C45.8586 39.7298 43.7046 41.8838 41.0719 41.8838Z" fill="#F82BA9" fill-opacity="0.2"/>
</svg>
